# xmcd
#
# Track frame offsets:
#	150
#	13525
#	25199
#	51753
#	75045
#	92552
#	109207
#	120891
#	133835
#	147032
#	167887
#
# Disc length: 2468 seconds
#
# Revision: 1
# Processed by: cddbd v1.5.2PL0 Copyright (c) Steve Scherf et al.
# Submitted via: audiograbber 1.83.01
#
DISCID=7c09a20b
DTITLE=Samuel Racine - Racine Tchek
DYEAR=2010
DGENRE=Blues
TTITLE0=Turnbill
TTITLE1=Cé quoi l'histoire
TTITLE2=Le vétécien
TTITLE3=La petite fille Parastou
TTITLE4=L'ennemi
TTITLE5=Scandale!!!
TTITLE6=En manque d'air pur
TTITLE7=À L'étage
TTITLE8=L'amour trompé
TTITLE9=Je suis un complot
TTITLE10=L'Irak me craque
EXTD=Thanks to Jess Barlose (xxx]\n-Cover ;Pierre-luc lavoie\n-thanks mr. S.Ra
EXTD=cine who helped us, record, produce, direct our album and even play at our
EXTD=place while we took too many hard drugs in his studio with his girlfriend
EXTD=who is actually, really Hot!\nAlso thanks for the lyrics,i still don't kn
EXTD=ow what I'm signing...\nGod bless overdrive!\n-The drums track has been ta
EXTD=ke at the sonum studios of Québec city (february 13 2009)418-524-9087\n\nL
EXTD=es Productions LE-DO 2010\nContact :Syr92@hotmail.com\n\nSoumis à freedb p
EXTD=ar BigueNique@yahoo.ca (sic]\nhttp://radio.fiatlux.tk
EXTT0=
EXTT1=
EXTT2=
EXTT3=
EXTT4=
EXTT5=
EXTT6=
EXTT7=
EXTT8=
EXTT9=
EXTT10=
PLAYORDER=
